<svg xmlns="http://www.w3.org/2000/svg" width="1228.047" height="1269.306" viewBox="0 0 1228.047 1269.306"><g transform="translate(-3830.069 -621)"><g transform="translate(2996 188)"><g transform="translate(861 433)" fill="none"><path d="M581,0c320.877,0,581,260.123,581,581v581H581C260.123,1162,0,901.877,0,581S260.123,0,581,0Z" stroke="none"/><path d="M 581 14 C 268.3551635742188 14 14 268.3551635742188 14 581 C 14 893.6448364257812 268.3551635742188 1148 581 1148 L 1148 1148 L 1148 581 C 1148 268.3551635742188 893.6448364257812 14 581 14 M 581 0 C 901.8775024414062 0 1162 260.1224975585938 1162 581 C 1162 749.1398315429688 1162 1162 1162 1162 C 1162 1162 733.7376708984375 1162 581 1162 C 260.1224975585938 1162 0 901.8775024414062 0 581 C 0 260.1224975585938 260.1224975585938 0 581 0 Z" stroke="none" fill="#90f"/></g><g transform="translate(890.835 462.835)" fill="none"><path d="M551.165,0c304.4,0,551.165,246.765,551.165,551.165v551.165H551.165C246.765,1102.331,0,855.566,0,551.165S246.765,0,551.165,0Z" stroke="none"/><path d="M 551.1654052734375 12 C 253.86865234375 12 12 253.86865234375 12 551.1654052734375 C 12 848.462158203125 253.86865234375 1090.330810546875 551.1654052734375 1090.330810546875 L 1090.330810546875 1090.330810546875 L 1090.330810546875 551.1654052734375 C 1090.330810546875 253.86865234375 848.462158203125 12 551.1654052734375 12 M 551.1654052734375 0 C 855.5657348632812 0 1102.330810546875 246.7652587890625 1102.330810546875 551.1654052734375 C 1102.330810546875 710.671142578125 1102.330810546875 1102.330810546875 1102.330810546875 1102.330810546875 C 1102.330810546875 1102.330810546875 696.0598754882812 1102.330810546875 551.1654052734375 1102.330810546875 C 246.7652587890625 1102.330810546875 0 855.5657348632812 0 551.1654052734375 C 0 246.7652587890625 246.7652587890625 0 551.1654052734375 0 Z" stroke="none" fill="#ff00b2"/></g></g><text transform="matrix(0.899, 0.438, -0.438, 0.899, 3919.058, 1399.333)" fill="#90f" font-size="803" font-family="HugMeTight, Hug Me Tight"><tspan x="0" y="0">N</tspan></text><text transform="translate(4550.1 1700.938) rotate(-16)" fill="#fff" font-size="780" font-family="HugMeTight, Hug Me Tight"><tspan x="0" y="0">E</tspan></text></g></svg>