<svg xmlns="http://www.w3.org/2000/svg" xmlns:xlink="http://www.w3.org/1999/xlink" width="1280" height="127.91" viewBox="0 0 1280 127.91"><defs><linearGradient id="a" x1="0.5" x2="0.5" y2="1" gradientUnits="objectBoundingBox"><stop offset="0" stop-color="#fff"/><stop offset="0.205" stop-color="#fff"/><stop offset="0.209" stop-color="#fff"/><stop offset="0.523" stop-color="#fff" stop-opacity="0.435"/><stop offset="1" stop-color="#fff" stop-opacity="0"/></linearGradient></defs><path d="M0,0H1280V67.983s-12.831,52.5-36.489,58.485-28.049-34.552-58.143-34.552-36.443,39.04-62.232,34.552-7.537-52.5-40.925-52.5-53.944,49.51-92.629,52.5-24.843-40.536-62.108-40.536-52.744,45.023-86.954,40.536-22.457-58.485-49.888-58.485-30.1,49.884-59.835,58.485-30.19-24.082-59.112-24.082-35.525,28.2-56.577,24.082-5.017-40.536-27.633-40.536-37.83,43.527-62.83,40.536-11.825-52.5-37.17-52.5-38.421,49.51-64.211,52.5-14.015-40.536-38.947-40.536-22.36,40.536-60.781,40.536-47.925-40.536-92.9-40.536-48.325,45.06-87.009,40.536-29.717-18.1-65.623-18.1-78,18.1-78,18.1Z" fill="url(#a)"/></svg>