<svg xmlns="http://www.w3.org/2000/svg" width="67" height="58" viewBox="0 0 67 58"><g transform="translate(-329.5 -579)"><path d="M50.25,0l-6.2,22.91L67,29,44.052,35.09,50.25,58,33.5,41.18,16.75,58l6.2-22.91L0,29l22.948-6.09L16.75,0,33.5,16.82Z" transform="translate(329.5 579)" fill="#fff"/><path d="M40.507,16.87,33.5,23.906,26.493,16.87l2.593,9.584L19.492,29l9.593,2.546L26.493,41.13,33.5,34.094l7.007,7.036-2.593-9.584L47.508,29l-9.593-2.546,2.593-9.584M16.75,0,33.5,16.82,50.25,0l-6.2,22.91L67,29,44.052,35.09,50.25,58,33.5,41.18,16.75,58l6.2-22.91L0,29l22.948-6.09Z" transform="translate(329.5 579)" fill="#70f"/></g></svg>