<svg xmlns="http://www.w3.org/2000/svg" width="36" height="36" viewBox="0 0 36 36">
  <g id="star2" stroke-linecap="round" stroke-linejoin="round">
    <path d="M 18 32.46450042724609 L 16.24497032165527 20.17929077148438 L 16.19194030761719 19.80805969238281 L 15.82071018218994 19.75502967834473 L 3.535500049591064 18 L 15.82071018218994 16.24497032165527 L 16.19194030761719 16.19194030761719 L 16.24497032165527 15.82071018218994 L 18 3.535500049591064 L 19.75502967834473 15.82071018218994 L 19.80805969238281 16.19194030761719 L 20.17929077148438 16.24497032165527 L 32.46450042724609 18 L 20.17929077148438 19.75502967834473 L 19.80805969238281 19.80805969238281 L 19.75502967834473 20.17929077148438 L 18 32.46450042724609 Z" stroke="none"/>
    <path d="M 18 7.071069717407227 L 16.73995018005371 15.89142036437988 C 16.67709922790527 16.33139991760254 16.33139991760254 16.67709922790527 15.89142036437988 16.73995018005371 L 7.071069717407227 18 L 15.89142036437988 19.26004981994629 C 16.33139991760254 19.32290077209473 16.67709922790527 19.66860008239746 16.73995018005371 20.10857963562012 L 18 28.92893028259277 L 19.26004981994629 20.10857963562012 C 19.32290077209473 19.66860008239746 19.66860008239746 19.32290077209473 20.10857963562012 19.26004981994629 L 28.92893028259277 18 L 20.10857963562012 16.73995018005371 C 19.66860008239746 16.67709922790527 19.32290077209473 16.33139991760254 19.26004981994629 15.89142036437988 L 18 7.071069717407227 M 18 0 L 20.25 15.75 L 36 18 L 20.25 20.25 L 18 36 L 15.75 20.25 L 0 18 L 15.75 15.75 L 18 0 Z" stroke="none" fill="#000"/>
  </g>
</svg>
