<svg xmlns="http://www.w3.org/2000/svg" width="259.879" height="289" viewBox="0 0 259.879 289"><g transform="translate(-181.207 -348)"><path d="M50.25,0l-6.2,22.91L67,29,44.052,35.09,50.25,58,33.5,41.18,16.75,58l6.2-22.91L0,29l22.948-6.09L16.75,0,33.5,16.82Z" transform="translate(248.5 413)" fill="#fff"/><path d="M40.507,16.87,33.5,23.906,26.493,16.87l2.593,9.584L19.492,29l9.593,2.546L26.493,41.13,33.5,34.094l7.007,7.036-2.593-9.584L47.508,29l-9.593-2.546,2.593-9.584M16.75,0,33.5,16.82,50.25,0l-6.2,22.91L67,29,44.052,35.09,50.25,58,33.5,41.18,16.75,58l6.2-22.91L0,29l22.948-6.09Z" transform="translate(248.5 413)" fill="#70f"/><path d="M50.25,0l-6.2,22.91L67,29,44.052,35.09,50.25,58,33.5,41.18,16.75,58l6.2-22.91L0,29l22.948-6.09L16.75,0,33.5,16.82Z" transform="translate(329.5 579)" fill="#fff"/><path d="M40.507,16.87,33.5,23.906,26.493,16.87l2.593,9.584L19.492,29l9.593,2.546L26.493,41.13,33.5,34.094l7.007,7.036-2.593-9.584L47.508,29l-9.593-2.546,2.593-9.584M16.75,0,33.5,16.82,50.25,0l-6.2,22.91L67,29,44.052,35.09,50.25,58,33.5,41.18,16.75,58l6.2-22.91L0,29l22.948-6.09Z" transform="translate(329.5 579)" fill="#70f"/><path d="M31.19,0,27.343,14.22,41.586,18,27.343,21.78,31.19,36l-10.4-10.44L10.4,36l3.847-14.22L0,18l14.243-3.78L10.4,0l10.4,10.44Z" transform="translate(308.707 515)" fill="#fff"/><path d="M27.292,6.748l-6.5,6.526-6.5-6.526,2.4,8.89L7.8,18l8.9,2.362-2.4,8.89,6.5-6.526,6.5,6.526-2.4-8.89L33.789,18l-8.9-2.362,2.4-8.89M10.4,0l10.4,10.44L31.19,0,27.343,14.22,41.586,18,27.343,21.78,31.19,36l-10.4-10.44L10.4,36l3.847-14.22L0,18l14.243-3.78Z" transform="translate(308.707 515)" fill="#70f"/><path d="M31.19,0,27.343,14.22,41.586,18,27.343,21.78,31.19,36l-10.4-10.44L10.4,36l3.847-14.22L0,18l14.243-3.78L10.4,0l10.4,10.44Z" transform="translate(220.707 486)" fill="#fff"/><path d="M27.292,6.748l-6.5,6.526-6.5-6.526,2.4,8.89L7.8,18l8.9,2.362-2.4,8.89,6.5-6.526,6.5,6.526-2.4-8.89L33.789,18l-8.9-2.362,2.4-8.89M10.4,0l10.4,10.44L31.19,0,27.343,14.22,41.586,18,27.343,21.78,31.19,36l-10.4-10.44L10.4,36l3.847-14.22L0,18l14.243-3.78Z" transform="translate(220.707 486)" fill="#70f"/><path d="M31.19,0,27.343,14.22,41.586,18,27.343,21.78,31.19,36l-10.4-10.44L10.4,36l3.847-14.22L0,18l14.243-3.78L10.4,0l10.4,10.44Z" transform="translate(181.207 348)" fill="#fff"/><path d="M27.292,6.748l-6.5,6.526-6.5-6.526,2.4,8.89L7.8,18l8.9,2.362-2.4,8.89,6.5-6.526,6.5,6.526-2.4-8.89L33.789,18l-8.9-2.362,2.4-8.89M10.4,0l10.4,10.44L31.19,0,27.343,14.22,41.586,18,27.343,21.78,31.19,36l-10.4-10.44L10.4,36l3.847-14.22L0,18l14.243-3.78Z" transform="translate(181.207 348)" fill="#70f"/><path d="M31.19,0,27.343,14.22,41.586,18,27.343,21.78,31.19,36l-10.4-10.44L10.4,36l3.847-14.22L0,18l14.243-3.78L10.4,0l10.4,10.44Z" transform="translate(193.207 587)" fill="#fff"/><path d="M27.292,6.748l-6.5,6.526-6.5-6.526,2.4,8.89L7.8,18l8.9,2.362-2.4,8.89,6.5-6.526,6.5,6.526-2.4-8.89L33.789,18l-8.9-2.362,2.4-8.89M10.4,0l10.4,10.44L31.19,0,27.343,14.22,41.586,18,27.343,21.78,31.19,36l-10.4-10.44L10.4,36l3.847-14.22L0,18l14.243-3.78Z" transform="translate(193.207 587)" fill="#70f"/><path d="M31.19,0,27.343,14.22,41.586,18,27.343,21.78,31.19,36l-10.4-10.44L10.4,36l3.847-14.22L0,18l14.243-3.78L10.4,0l10.4,10.44Z" transform="translate(399.5 409)" fill="#fff"/><path d="M27.292,6.748l-6.5,6.526-6.5-6.526,2.4,8.89L7.8,18l8.9,2.362-2.4,8.89,6.5-6.526,6.5,6.526-2.4-8.89L33.789,18l-8.9-2.362,2.4-8.89M10.4,0l10.4,10.44L31.19,0,27.343,14.22,41.586,18,27.343,21.78,31.19,36l-10.4-10.44L10.4,36l3.847-14.22L0,18l14.243-3.78Z" transform="translate(399.5 409)" fill="#70f"/></g></svg>